<?xml version="1.0" encoding="utf-8"?>
<!-- Generator: Adobe Illustrator 27.5.0, SVG Export Plug-In . SVG Version: 6.00 Build 0)  -->
<svg version="1.1" id="Layer_1" xmlns="http://www.w3.org/2000/svg" xmlns:xlink="http://www.w3.org/1999/xlink" x="0px" y="0px"
	 viewBox="0 0 2122 2122" style="enable-background:new 0 0 2122 2122;" xml:space="preserve">
<g>
	<rect style="fill:#FFFFFF;" width="2121.32" height="2121.32"/>
	<g>
		
			<radialGradient id="SVGID_1_" cx="874.8844" cy="4101.5376" r="420.2754" gradientTransform="matrix(1.0465 0 0 0.2449 137.4551 691.6455)" gradientUnits="userSpaceOnUse">
			<stop  offset="0.2871" style="stop-color:#B3B3B3"/>
			<stop  offset="0.3505" style="stop-color:#BBBBBB"/>
			<stop  offset="0.785" style="stop-color:#ECECEC"/>
			<stop  offset="1" style="stop-color:#FFFFFF"/>
		</radialGradient>
		<path style="fill:url(#SVGID_1_);" d="M1492.781,1696.102c0,56.863-196.913,102.949-439.759,102.949
			c-242.848,0-439.759-46.086-439.759-102.949c0-56.832,196.911-102.93,439.759-102.93
			C1295.868,1593.173,1492.781,1639.27,1492.781,1696.102z"/>
		<g>
			<path style="fill:#EBEBEB;" d="M1475.199,557.955c0-51.377-190.02-93.021-424.359-93.021
				c-234.341,0-424.298,41.643-424.298,93.021h-1.656l149.287,1103.937c0,43.609,111.981,78.988,276.667,78.988
				s276.714-35.38,276.714-78.988l149.241-1103.937H1475.199z"/>
			<g>
				
					<linearGradient id="SVGID_00000176009863189884301830000005568400931662281869_" gradientUnits="userSpaceOnUse" x1="701.6505" y1="1102.8837" x2="1478.6068" y2="1102.8837">
					<stop  offset="0" style="stop-color:#F1F1F1"/>
					<stop  offset="0.0374" style="stop-color:#F4F4F4"/>
					<stop  offset="0.1974" style="stop-color:#FCFCFC"/>
					<stop  offset="0.4629" style="stop-color:#FFFFFF"/>
					<stop  offset="0.9098" style="stop-color:#F4F4F4"/>
					<stop  offset="1" style="stop-color:#F1F1F1"/>
				</linearGradient>
				<path style="fill:url(#SVGID_00000176009863189884301830000005568400931662281869_);" d="M1476.794,558.001l-149.195,1103.891
					c0,18.422-20.296,35.618-56.067,49.134c-28.265,10.64-66.354,19.03-111.996,24.142c-32.563,3.685-69.165,5.742-108.696,5.742
					c-13.926,0-27.618-0.214-40.73-0.629c-14.538-0.599-28.648-1.427-42.159-2.657c-9.027-0.613-17.625-1.427-25.991-2.456
					c-14.968-1.627-28.848-3.669-41.957-6.133c-15.598-2.664-29.892-5.943-42.803-9.404c-9.826-2.672-19.037-5.542-27.205-8.606
					c-35.802-13.724-55.913-30.712-55.913-49.134L624.885,558.001h1.656c0-11.676,9.796-22.729,27.604-32.954
					c14.124-8.199,33.131-15.982,56.496-22.714c2.457-0.63,4.713-1.243,7.186-1.858c12.066-3.469,25.363-6.747,39.716-9.826
					c18.224-3.885,38.045-7.368,59.139-10.232c2.011-0.413,4.314-0.605,6.554-1.02c65.709-9.212,143.869-14.539,227.602-14.539
					c114.022,0,217.161,9.826,293.293,25.792c45.06,9.618,80.463,21.087,103.169,34.175c18.039,10.256,27.897,21.501,27.897,33.177
					H1476.794z"/>
			</g>
			
				<linearGradient id="SVGID_00000121260782223118278140000002954114204437148580_" gradientUnits="userSpaceOnUse" x1="1050.8384" y1="824.9581" x2="1050.8384" y2="1034.7014">
				<stop  offset="0.3985" style="stop-color:#EBAE69"/>
				<stop  offset="0.748" style="stop-color:#DB9548"/>
				<stop  offset="1" style="stop-color:#D18735"/>
			</linearGradient>
			<path style="fill:url(#SVGID_00000121260782223118278140000002954114204437148580_);" d="M1426.806,927.635
				c0,45.552-168.34,82.443-375.967,82.443s-375.969-36.891-375.969-82.443c0-45.512,168.342-82.42,375.969-82.42
				S1426.806,882.123,1426.806,927.635z"/>
			
				<linearGradient id="SVGID_00000180338112348171903850000017761874490539863697_" gradientUnits="userSpaceOnUse" x1="1050.8384" y1="906.7986" x2="1050.8384" y2="1769.5657">
				<stop  offset="0.1213" style="stop-color:#D4A26A"/>
				<stop  offset="0.7005" style="stop-color:#C48947"/>
				<stop  offset="1" style="stop-color:#D18735"/>
			</linearGradient>
			<path style="fill:url(#SVGID_00000180338112348171903850000017761874490539863697_);" d="M1426.806,927.635
				c0,45.552-168.34,82.443-375.967,82.443s-375.969-36.891-375.969-82.443l93.729,707.443l282.286,75.673l280.306-75.673
				L1426.806,927.635z"/>
			<path style="fill:#EBAE69;" d="M1347.373,877.102c18.945,9.825,29.461,20.649,29.461,32.011
				c0,45.536-168.309,82.427-375.998,82.427c-120.61,0-227.739-12.504-296.518-31.855c57.005,29.615,190.678,50.394,346.521,50.394
				c207.626,0,375.967-36.891,375.967-82.443C1426.806,908.567,1396.991,891.065,1347.373,877.102z"/>
			<path style="fill:#6B6B6B;" d="M1050.839,1678.471c-144.804,0-250.753-24.548-282.24-57.939l5.573,41.36
				c0,43.609,111.981,78.988,276.667,78.988s276.714-35.38,276.714-78.988l5.619-41.36
				C1301.653,1653.923,1195.69,1678.471,1050.839,1678.471z"/>
			<g>
				<path style="fill:#A65624;" d="M1050.838,1013.572c-185.869,0-378.125-32.085-378.125-85.773h7.316
					c0,37.889,149.001,78.458,370.81,78.458s370.81-40.569,370.81-78.458h7.315
					C1428.963,981.487,1236.707,1013.572,1050.838,1013.572z"/>
			</g>
			<g>
				<path style="fill:#B0B0B0;" d="M1050.838,1686.145c-140.275,0-253.253-23.687-287.823-60.346l11.171-10.531
					c26.064,27.64,121.714,55.527,276.653,55.527c154.967,0,250.66-27.891,276.753-55.53l11.164,10.537
					C1304.152,1662.458,1191.135,1686.145,1050.838,1686.145z"/>
			</g>
			<path style="fill:#CCCCCC;" d="M1447.302,524.823l-175.77,1186.203c-28.265,10.64-66.354,19.03-111.996,24.142l184.597-1244.52
				C1389.192,500.267,1424.595,511.735,1447.302,524.823z"/>
			<g>
				<path style="fill:#B0B0B0;" d="M1050.838,1744.944c-162.668,0-280.731-34.93-280.731-83.051L622.513,558.496l8.057-1.079
					l147.63,1103.937c0.036,37.368,102.002,75.462,272.639,75.462c170.666,0,272.653-38.095,272.653-74.923l147.681-1104.477
					l8.056,1.079l-147.645,1103.937C1331.619,1710.015,1213.534,1744.944,1050.838,1744.944z"/>
			</g>
			<g>
				<path style="fill:#B0B0B0;" d="M1050.838,655.037c-210.562,0-428.362-36.314-428.362-97.081
					c0-60.771,217.799-97.084,428.362-97.084c210.595,0,428.426,36.314,428.426,97.084
					C1479.264,618.723,1261.433,655.037,1050.838,655.037z M1050.838,469c-251.373,0-420.233,45.996-420.233,88.956
					c0,42.957,168.86,88.953,420.233,88.953c251.412,0,420.298-45.996,420.298-88.953C1471.136,514.995,1302.25,469,1050.838,469z"
					/>
			</g>
			<g>
				<g>
					<path style="fill:#EBAE69;" d="M717.116,976.409c-1.723,0-3.471-0.155-5.215-0.471c-5.974-1.075-11.315-3.906-15.037-7.966
						c-3.996-4.359-5.747-9.837-4.809-15.034c0.935-5.189,4.492-9.71,9.757-12.401c4.906-2.499,10.905-3.298,16.868-2.211
						c5.974,1.075,11.314,3.905,15.037,7.966c3.996,4.359,5.747,9.836,4.808,15.033c-0.935,5.194-4.492,9.711-9.757,12.401
						C725.298,975.495,721.281,976.409,717.116,976.409z M713.501,947.435c-2.671,0-5.232,0.558-7.333,1.633
						c-1.517,0.773-4.14,2.524-4.69,5.571c-0.55,3.05,1.295,5.607,2.446,6.862c2.28,2.489,5.808,4.316,9.674,5.014
						c3.87,0.691,7.816,0.216,10.815-1.32c1.517-0.773,4.139-2.525,4.69-5.571v-0.004c0.55-3.046-1.295-5.604-2.446-6.859
						c-2.28-2.489-5.808-4.316-9.675-5.013C715.821,947.539,714.648,947.435,713.501,947.435z"/>
				</g>
				<g>
					<path style="fill:#EBAE69;" d="M689.308,953.326c-7.042,0-12.768-5.359-12.768-11.948s5.725-11.952,12.768-11.952
						c7.038,0,12.764,5.363,12.764,11.952S696.345,953.326,689.308,953.326z M689.308,939.002c-1.73,0-3.194,1.089-3.194,2.377
						s1.464,2.374,3.194,2.374c1.729,0,3.19-1.087,3.19-2.374S691.037,939.002,689.308,939.002z"/>
				</g>
				<g>
					<path style="fill:#EBAE69;" d="M750.686,988.518c-10.423,0-18.903-7.563-18.903-16.861c0-9.297,8.48-16.856,18.903-16.856
						c10.426,0,18.907,7.559,18.907,16.856C769.593,980.955,761.112,988.518,750.686,988.518z M750.686,964.375
						c-5.143,0-9.329,3.269-9.329,7.282c0,4.018,4.186,7.287,9.329,7.287c5.146,0,9.333-3.269,9.333-7.287
						C760.019,967.644,755.832,964.375,750.686,964.375z"/>
				</g>
				<g>
					<path style="fill:#EBAE69;" d="M744.036,964.375c-6.305,0-11.434-4.532-11.434-10.107c0-5.574,5.129-10.11,11.434-10.11
						c6.308,0,11.437,4.536,11.437,10.11C755.473,959.843,750.344,964.375,744.036,964.375z M742.209,954.406
						c0.388,0.004,2.999,0.341,3.572-0.137c-0.27-0.227-0.86-0.536-1.744-0.536c-1.148,0-1.795,0.521-1.892,0.701
						C742.159,954.412,742.18,954.406,742.209,954.406z"/>
				</g>
				<g>
					<path style="fill:#EBAE69;" d="M778.102,995.474c-8.844,0-16.037-6.919-16.037-15.425c0-8.51,7.193-15.429,16.037-15.429
						c8.843,0,16.04,6.919,16.04,15.429C794.143,988.554,786.946,995.474,778.102,995.474z M778.102,974.193
						c-3.564,0-6.463,2.625-6.463,5.855c0,3.226,2.899,5.851,6.463,5.851c3.564,0,6.466-2.625,6.466-5.851
						C784.569,976.819,781.666,974.193,778.102,974.193z"/>
				</g>
				<g>
					<path style="fill:#EBAE69;" d="M814.931,1005.703c-16.062,0-29.132-11.232-29.132-25.043c0-13.811,13.07-25.043,29.132-25.043
						c16.065,0,29.135,11.232,29.135,25.043C844.066,994.471,830.996,1005.703,814.931,1005.703z M814.931,965.191
						c-10.783,0-19.558,6.941-19.558,15.469c0,8.527,8.775,15.469,19.558,15.469c10.786,0,19.561-6.942,19.561-15.469
						C834.492,972.133,825.717,965.191,814.931,965.191z"/>
				</g>
				<g>
					<path style="fill:#EBAE69;" d="M852.989,1006.933c-10.875,0-19.723-8.114-19.723-18.087c0-9.973,8.848-18.086,19.723-18.086
						c10.876,0,19.724,8.113,19.724,18.086C872.713,998.818,863.865,1006.933,852.989,1006.933z M852.989,980.333
						c-5.596,0-10.149,3.819-10.149,8.513c0,4.694,4.553,8.513,10.149,8.513c5.596,0,10.15-3.819,10.15-8.513
						C863.139,984.152,858.585,980.333,852.989,980.333z"/>
				</g>
				<g>
					<path style="fill:#EBAE69;" d="M881.427,996.291c-10.987,0-19.925-7.287-19.925-16.242c0-8.959,8.938-16.246,19.925-16.246
						c10.987,0,19.929,7.287,19.929,16.246C901.356,989.004,892.414,996.291,881.427,996.291z M881.427,973.377
						c-5.513,0-10.351,3.119-10.351,6.672c0,3.553,4.838,6.668,10.351,6.668c5.517,0,10.354-3.115,10.354-6.668
						C891.781,976.495,886.944,973.377,881.427,973.377z"/>
				</g>
				<g>
					<path style="fill:#EBAE69;" d="M877.949,1015.114c-9.07,0-16.447-6.552-16.447-14.608c0-8.053,7.377-14.606,16.447-14.606
						c9.071,0,16.451,6.553,16.451,14.606C894.399,1008.562,887.02,1015.114,877.949,1015.114z M877.949,995.474
						c-3.725,0-6.873,2.305-6.873,5.032c0,2.73,3.147,5.035,6.873,5.035c3.726,0,6.877-2.305,6.877-5.035
						C884.826,997.779,881.675,995.474,877.949,995.474z"/>
				</g>
				<g>
					<path style="fill:#EBAE69;" d="M914.983,1016.341c-15.764,0-28.111-8.395-28.111-19.109c0-10.714,12.347-19.108,28.111-19.108
						c15.763,0,28.111,8.394,28.111,19.108C943.093,1007.947,930.746,1016.341,914.983,1016.341z M914.983,987.698
						c-10.61,0-18.537,5.035-18.537,9.534c0,4.5,7.927,9.534,18.537,9.534c10.61,0,18.536-5.034,18.536-9.534
						C933.519,992.734,925.592,987.698,914.983,987.698z"/>
				</g>
				<g>
					<path style="fill:#EBAE69;" d="M946.901,1001.203c-8.283,0-15.019-5.726-15.019-12.768c0-7.042,6.736-12.768,15.019-12.768
						c8.28,0,15.016,5.725,15.016,12.768C961.917,995.477,955.181,1001.203,946.901,1001.203z M946.901,985.242
						c-3.068,0-5.445,1.715-5.445,3.194c0,1.478,2.377,3.194,5.445,3.194c3.115,0,5.442-1.687,5.442-3.194
						C952.343,986.929,950.016,985.242,946.901,985.242z"/>
				</g>
				<g>
					<path style="fill:#EBAE69;" d="M956.925,1024.117c-13.124,0-23.406-6.955-23.406-15.836c0-8.88,10.282-15.836,23.406-15.836
						c13.124,0,23.406,6.956,23.406,15.836C980.331,1017.161,970.049,1024.117,956.925,1024.117z M956.925,1002.02
						c-8.315,0-13.832,3.769-13.832,6.261c0,2.493,5.517,6.262,13.832,6.262c8.315,0,13.832-3.769,13.832-6.262
						C970.757,1005.789,965.24,1002.02,956.925,1002.02z"/>
				</g>
				<g>
					<path style="fill:#EBAE69;" d="M975.955,1004.476c-13.012,0-23.201-7.316-23.201-16.655c0-9.337,10.189-16.652,23.201-16.652
						c13.012,0,23.201,7.316,23.201,16.652C999.156,997.161,988.967,1004.476,975.955,1004.476z M975.955,980.742
						c-7.797,0-13.627,3.737-13.627,7.078s5.83,7.081,13.627,7.081s13.627-3.74,13.627-7.081S983.752,980.742,975.955,980.742z"/>
				</g>
				<g>
					<path style="fill:#EBAE69;" d="M985.982,1019.618c-8.308,0-14.814-5.427-14.814-12.358c0-6.93,6.506-12.357,14.814-12.357
						c8.305,0,14.811,5.427,14.811,12.357C1000.792,1014.191,994.286,1019.618,985.982,1019.618z M985.982,1004.476
						c-3.15,0-5.24,1.677-5.24,2.784c0,1.108,2.09,2.784,5.24,2.784c3.147,0,5.236-1.676,5.236-2.784
						C991.218,1006.153,989.129,1004.476,985.982,1004.476z"/>
				</g>
				<g>
					<path style="fill:#EBAE69;" d="M1018.103,1017.161c-16.631,0-30.157-10.865-30.157-24.223
						c0-13.358,13.526-24.227,30.157-24.227c16.63,0,30.157,10.869,30.157,24.227
						C1048.259,1006.296,1034.733,1017.161,1018.103,1017.161z M1018.103,978.286c-11.157,0-20.584,6.712-20.584,14.653
						c0,7.941,9.427,14.649,20.584,14.649c11.156,0,20.583-6.708,20.583-14.649C1038.685,984.997,1029.259,978.286,1018.103,978.286
						z"/>
				</g>
				<g>
					<path style="fill:#EBAE69;" d="M1048.385,993.838c-8.057,0-14.609-6.276-14.609-13.994c0-7.719,6.552-13.994,14.609-13.994
						c8.052,0,14.605,6.276,14.605,13.994C1062.991,987.562,1056.437,993.838,1048.385,993.838z M1048.385,975.424
						c-2.777,0-5.035,1.981-5.035,4.42c0,2.438,2.258,4.42,5.035,4.42c2.772,0,5.031-1.982,5.031-4.42
						C1053.417,977.405,1051.158,975.424,1048.385,975.424z"/>
				</g>
				<g>
					<path style="fill:#EBAE69;" d="M1062.706,1020.024c-12.552,0-22.384-7.585-22.384-17.267c0-9.682,9.833-17.267,22.384-17.267
						c12.552,0,22.381,7.585,22.381,17.267C1085.088,1012.439,1075.258,1020.024,1062.706,1020.024z M1062.706,995.064
						c-7.549,0-12.811,4.053-12.811,7.693c0,3.64,5.261,7.693,12.811,7.693c7.545,0,12.807-4.053,12.807-7.693
						C1075.514,999.118,1070.252,995.064,1062.706,995.064z"/>
				</g>
				<g>
					<path style="fill:#EBAE69;" d="M1069.662,995.064c-9.337,0-16.652-5.967-16.652-13.585c0-7.617,7.316-13.584,16.652-13.584
						c9.34,0,16.655,5.967,16.655,13.584C1086.318,989.097,1079.002,995.064,1069.662,995.064z M1069.662,977.47
						c-4.05,0-7.078,2.118-7.078,4.01c0,1.892,3.028,4.011,7.078,4.011c3.989,0,7.081-2.154,7.081-4.011
						C1076.744,979.624,1073.651,977.47,1069.662,977.47z"/>
				</g>
				<g>
					<path style="fill:#EBAE69;" d="M1104.65,1017.571c-15.839,0-28.726-10.224-28.726-22.791c0-12.57,12.887-22.795,28.726-22.795
						c15.838,0,28.725,10.225,28.725,22.795C1133.375,1007.346,1120.488,1017.571,1104.65,1017.571z M1104.65,981.559
						c-10.38,0-19.152,6.057-19.152,13.221c0,7.165,8.772,13.217,19.152,13.217c10.379,0,19.151-6.052,19.151-13.217
						C1123.8,987.616,1115.029,981.559,1104.65,981.559z"/>
				</g>
				<g>
					<path style="fill:#EBAE69;" d="M1138.205,1006.522c-8.168,0-14.814-6.002-14.814-13.382c0-7.377,6.646-13.38,14.814-13.38
						s14.811,6.003,14.811,13.38C1153.016,1000.52,1146.373,1006.522,1138.205,1006.522z M1138.205,989.334
						c-2.841,0-5.24,1.745-5.24,3.806c0,2.064,2.399,3.808,5.24,3.808c2.838,0,5.237-1.744,5.237-3.808
						C1143.442,991.079,1141.043,989.334,1138.205,989.334z"/>
				</g>
				<g>
					<path style="fill:#EBAE69;" d="M1171.761,1015.114c-16.569,0-29.546-9.739-29.546-22.176c0-12.437,12.977-22.18,29.546-22.18
						c16.565,0,29.542,9.743,29.542,22.18C1201.302,1005.375,1188.326,1015.114,1171.761,1015.114z M1171.761,980.333
						c-10.825,0-19.971,5.772-19.971,12.606c0,6.83,9.146,12.602,19.971,12.602c10.822,0,19.968-5.772,19.968-12.602
						C1191.728,986.105,1182.582,980.333,1171.761,980.333z"/>
				</g>
				<g>
					<path style="fill:#EBAE69;" d="M1204.701,995.474c-10.713,0-19.108-6.236-19.108-14.199c0-7.962,8.395-14.199,19.108-14.199
						c10.714,0,19.109,6.237,19.109,14.199C1223.81,989.238,1215.415,995.474,1204.701,995.474z M1204.701,976.65
						c-5.733,0-9.534,2.783-9.534,4.625c0,1.841,3.801,4.625,9.534,4.625c5.733,0,9.535-2.784,9.535-4.625
						C1214.236,979.433,1210.434,976.65,1204.701,976.65z"/>
				</g>
				<g>
					<path style="fill:#EBAE69;" d="M1208.996,1011.842c-8.844,0-16.037-6.186-16.037-13.789c0-7.603,7.193-13.789,16.037-13.789
						c8.843,0,16.04,6.186,16.04,13.789C1225.036,1005.656,1217.839,1011.842,1208.996,1011.842z M1208.996,993.838
						c-3.809,0-6.463,2.222-6.463,4.215c0,1.993,2.655,4.215,6.463,4.215c3.808,0,6.466-2.222,6.466-4.215
						C1215.462,996.06,1212.804,993.838,1208.996,993.838z"/>
				</g>
				<g>
					<path style="fill:#EBAE69;" d="M1235.595,1009.796c-12.232,0-22.18-9.304-22.18-20.745c0-11.44,9.947-20.748,22.18-20.748
						c12.231,0,22.18,9.308,22.18,20.748C1257.775,1000.491,1247.827,1009.796,1235.595,1009.796z M1235.595,977.876
						c-6.953,0-12.606,5.013-12.606,11.174c0,6.161,5.653,11.171,12.606,11.171c6.952,0,12.606-5.01,12.606-11.171
						C1248.201,982.89,1242.547,977.876,1235.595,977.876z"/>
				</g>
				<g>
					<path style="fill:#EBAE69;" d="M1269.356,1007.339c-12.322,0-21.975-6.596-21.975-15.016c0-8.423,9.653-15.019,21.975-15.019
						c12.321,0,21.971,6.597,21.971,15.019C1291.327,1000.743,1281.677,1007.339,1269.356,1007.339z M1269.356,986.879
						c-7.455,0-12.401,3.276-12.401,5.445c0,2.166,4.945,5.442,12.401,5.442c7.452,0,12.397-3.276,12.397-5.442
						C1281.753,990.403,1277.045,986.879,1269.356,986.879z"/>
				</g>
				<g>
					<path style="fill:#EBAE69;" d="M1293.499,994.244c-12.782,0-22.795-6.866-22.795-15.631c0-8.765,10.013-15.631,22.795-15.631
						c12.782,0,22.791,6.866,22.791,15.631C1316.29,987.378,1306.282,994.244,1293.499,994.244z M1293.499,972.557
						c-7.948,0-13.221,3.647-13.221,6.057c0,2.409,5.272,6.056,13.221,6.056c7.945,0,13.217-3.647,13.217-6.056
						C1306.716,976.204,1301.444,972.557,1293.499,972.557z"/>
				</g>
				<g>
					<path style="fill:#EBAE69;" d="M1312.935,976.24c-7.042,0-12.768-5.452-12.768-12.153c0-6.701,5.725-12.153,12.768-12.153
						c7.042,0,12.768,5.452,12.768,12.153C1325.703,970.788,1319.977,976.24,1312.935,976.24z M1312.935,961.508
						c-1.73,0-3.194,1.18-3.194,2.579c0,1.399,1.464,2.579,3.194,2.579c1.729,0,3.194-1.179,3.194-2.579
						C1316.129,962.688,1314.665,961.508,1312.935,961.508z"/>
				</g>
				<g>
					<path style="fill:#EBAE69;" d="M1329.202,997.11c-11.807,0-21.054-6.686-21.054-15.221c0-8.538,9.247-15.224,21.054-15.224
						c11.803,0,21.05,6.686,21.05,15.224C1350.253,990.425,1341.006,997.11,1329.202,997.11z M1329.202,976.24
						c-7.006,0-11.48,3.349-11.48,5.65c0,2.302,4.474,5.647,11.48,5.647c7.006,0,11.477-3.345,11.477-5.647
						C1340.679,979.588,1336.209,976.24,1329.202,976.24z"/>
				</g>
				<g>
					<path style="fill:#EBAE69;" d="M1331.759,975.83c-8.077,0-14.404-5.247-14.404-11.948c0-6.701,6.326-11.948,14.404-11.948
						c8.078,0,14.404,5.247,14.404,11.948C1346.163,970.583,1339.837,975.83,1331.759,975.83z M1331.759,961.508
						c-2.948,0-4.83,1.557-4.83,2.374c0,0.838,1.834,2.373,4.83,2.373c2.949,0,4.83-1.557,4.83-2.373
						C1336.589,963.065,1334.708,961.508,1331.759,961.508z"/>
				</g>
				<g>
					<path style="fill:#EBAE69;" d="M1361.222,984.425c-14.487,0-26.272-9.491-26.272-21.154c0-11.663,11.785-21.155,26.272-21.155
						c14.487,0,26.27,9.492,26.27,21.155C1387.492,974.935,1375.709,984.425,1361.222,984.425z M1361.222,951.69
						c-9.052,0-16.698,5.305-16.698,11.581c0,6.276,7.646,11.58,16.698,11.58c9.049,0,16.695-5.305,16.695-11.58
						C1377.917,956.995,1370.271,951.69,1361.222,951.69z"/>
				</g>
				<g>
					<path style="fill:#EBAE69;" d="M1392.731,969.284c-9.912,0-17.677-6.237-17.677-14.2c0-7.962,7.765-14.199,17.677-14.199
						c9.912,0,17.677,6.236,17.677,14.199C1410.408,963.048,1402.644,969.284,1392.731,969.284z M1392.731,950.46
						c-4.636,0-8.103,2.443-8.103,4.625c0,2.183,3.467,4.626,8.103,4.626c4.636,0,8.103-2.443,8.103-4.626
						C1400.834,952.902,1397.368,950.46,1392.731,950.46z"/>
				</g>
				<g>
					<path style="fill:#EBAE69;" d="M1412.372,956.189c-8.765,0-15.631-5.607-15.631-12.767c0-7.157,6.866-12.765,15.631-12.765
						c8.765,0,15.631,5.607,15.631,12.765C1428.003,950.582,1421.137,956.189,1412.372,956.189z M1412.372,940.231
						c-3.64,0-6.057,1.921-6.057,3.191c0,1.269,2.417,3.193,6.057,3.193c3.639,0,6.056-1.924,6.056-3.193
						C1418.428,942.152,1416.011,940.231,1412.372,940.231z"/>
				</g>
			</g>
			<g>
				<polygon style="fill:#A65624;" points="763.149,985.03 837.463,1668.684 833.669,1669.131 747.982,986.795 763.149,985.03 				
					"/>
				<polygon style="fill:#A65624;" points="910.262,1007.524 944.864,1680.472 941.051,1680.702 895.02,1008.436 910.262,1007.524 
									"/>
				<polygon style="fill:#A65624;" points="1058.474,1015.33 1052.749,1684.459 1048.929,1684.459 1043.205,1015.33 
					1058.474,1015.33 				"/>
				<polygon style="fill:#A65624;" points="1206.656,1008.436 1160.597,1680.702 1156.782,1680.472 1191.415,1007.524 
					1206.656,1008.436 				"/>
				<polygon style="fill:#A65624;" points="1353.651,986.793 1268.008,1669.131 1264.214,1668.684 1338.484,985.031 
					1353.651,986.793 				"/>
			</g>
			<path style="fill:#1A1A1A;" d="M967.95,1737.624c-9.027-0.613-17.625-1.427-25.991-2.456
				c-14.968-1.627-28.848-3.669-41.957-6.133c-15.598-2.664-29.892-5.943-42.803-9.404L710.642,502.333
				c2.457-0.63,4.713-1.243,7.186-1.858c12.066-3.469,25.363-6.747,39.716-9.826c18.224-3.885,38.045-7.368,59.139-10.232
				L967.95,1737.624z"/>
		</g>
	</g>
</g>
</svg>
